<svg width="123" height="40" viewBox="0 0 123 40" fill="none" xmlns="http://www.w3.org/2000/svg">
<g opacity="0.5">
<path d="M1.40066 7.77772H121.599" stroke="#5C4410" stroke-linecap="square"/>
<path d="M1.40066 5.55556H121.599" stroke="#5C4410" stroke-linecap="square"/>
<path d="M1.40066 3.33339H121.599" stroke="#5C4410" stroke-linecap="square"/>
<path d="M1.40066 1.11122H121.599" stroke="#5C4410" stroke-linecap="square"/>
<path d="M1.40066 9.99989H121.599" stroke="#5C4410" stroke-linecap="square"/>
<path d="M1.40066 12.2221H121.599" stroke="#5C4410" stroke-linecap="square"/>
<path d="M1.40066 14.4442H121.599" stroke="#5C4410" stroke-linecap="square"/>
<path d="M1.40066 16.6669H121.599" stroke="#5C4410" stroke-linecap="square"/>
<path d="M1.40066 18.8891H121.599" stroke="#5C4410" stroke-linecap="square"/>
<path d="M1.40066 21.1112H121.599" stroke="#5C4410" stroke-linecap="square"/>
<path d="M1.40066 23.3334H121.599" stroke="#5C4410" stroke-linecap="square"/>
<path d="M1.40066 25.5556H121.599" stroke="#5C4410" stroke-linecap="square"/>
<path d="M1.40066 27.7777H121.599" stroke="#5C4410" stroke-linecap="square"/>
<path d="M1.40066 29.9999H121.599" stroke="#5C4410" stroke-linecap="square"/>
<path d="M1.40066 32.2221H121.599" stroke="#5C4410" stroke-linecap="square"/>
<path d="M1.40066 34.4442H121.599" stroke="#5C4410" stroke-linecap="square"/>
<path d="M1.40066 36.6669H121.599" stroke="#5C4410" stroke-linecap="square"/>
<path d="M1.40066 38.8891H121.599" stroke="#5C4410" stroke-linecap="square"/>
<path d="M2.10571 0.555556V39.4444" stroke="#5C4410" stroke-linecap="square"/>
<path d="M4.31763 0.555556V39.4444" stroke="#5C4410" stroke-linecap="square"/>
<path d="M6.52954 0.555556V39.4444" stroke="#5C4410" stroke-linecap="square"/>
<path d="M8.74146 0.555556V39.4444" stroke="#5C4410" stroke-linecap="square"/>
<path d="M10.9534 0.555556V39.4444" stroke="#5C4410" stroke-linecap="square"/>
<path d="M13.1653 0.555556V39.4444" stroke="#5C4410" stroke-linecap="square"/>
<path d="M15.3772 0.555556V39.4444" stroke="#5C4410" stroke-linecap="square"/>
<path d="M17.5891 0.555556V39.4444" stroke="#5C4410" stroke-linecap="square"/>
<path d="M19.801 0.555556V39.4444" stroke="#5C4410" stroke-linecap="square"/>
<path d="M22.0129 0.555556V39.4444" stroke="#5C4410" stroke-linecap="square"/>
<path d="M24.2249 0.555556V39.4444" stroke="#5C4410" stroke-linecap="square"/>
<path d="M26.4368 0.555556V39.4444" stroke="#5C4410" stroke-linecap="square"/>
<path d="M28.6487 0.555556V39.4444" stroke="#5C4410" stroke-linecap="square"/>
<path d="M30.8606 0.555556V39.4444" stroke="#5C4410" stroke-linecap="square"/>
<path d="M33.0725 0.555556V39.4444" stroke="#5C4410" stroke-linecap="square"/>
<path d="M35.2844 0.555556V39.4444" stroke="#5C4410" stroke-linecap="square"/>
<path d="M37.4963 0.555556V39.4444" stroke="#5C4410" stroke-linecap="square"/>
<path d="M39.7083 0.555556V39.4444" stroke="#5C4410" stroke-linecap="square"/>
<path d="M41.9202 0.555556V39.4444" stroke="#5C4410" stroke-linecap="square"/>
<path d="M44.1321 0.555556V39.4444" stroke="#5C4410" stroke-linecap="square"/>
<path d="M46.344 0.555556V39.4444" stroke="#5C4410" stroke-linecap="square"/>
<path d="M48.5559 0.555556V39.4444" stroke="#5C4410" stroke-linecap="square"/>
<path d="M50.7678 0.555556V39.4444" stroke="#5C4410" stroke-linecap="square"/>
<path d="M52.9797 0.555556V39.4444" stroke="#5C4410" stroke-linecap="square"/>
<path d="M55.1917 0.555556V39.4444" stroke="#5C4410" stroke-linecap="square"/>
<path d="M57.4036 0.555556V39.4444" stroke="#5C4410" stroke-linecap="square"/>
<path d="M59.6155 0.555556V39.4444" stroke="#5C4410" stroke-linecap="square"/>
<path d="M61.8274 0.555556V39.4444" stroke="#5C4410" stroke-linecap="square"/>
<path d="M64.0393 0.555556V39.4444" stroke="#5C4410" stroke-linecap="square"/>
<path d="M66.2512 0.555556V39.4444" stroke="#5C4410" stroke-linecap="square"/>
<path d="M68.4631 0.555556V39.4444" stroke="#5C4410" stroke-linecap="square"/>
<path d="M70.6751 0.555556V39.4444" stroke="#5C4410" stroke-linecap="square"/>
<path d="M72.887 0.555556V39.4444" stroke="#5C4410" stroke-linecap="square"/>
<path d="M75.0989 0.555556V39.4444" stroke="#5C4410" stroke-linecap="square"/>
<path d="M77.3108 0.555556V39.4444" stroke="#5C4410" stroke-linecap="square"/>
<path d="M79.5227 0.555556V39.4444" stroke="#5C4410" stroke-linecap="square"/>
<path d="M81.7346 0.555556V39.4444" stroke="#5C4410" stroke-linecap="square"/>
<path d="M83.9475 0.555556V39.4444" stroke="#5C4410" stroke-linecap="square"/>
<path d="M86.1584 0.555556V39.4444" stroke="#5C4410" stroke-linecap="square"/>
<path d="M88.3713 0.555556V39.4444" stroke="#5C4410" stroke-linecap="square"/>
<path d="M90.5833 0.555556V39.4444" stroke="#5C4410" stroke-linecap="square"/>
<path d="M92.7952 0.555556V39.4444" stroke="#5C4410" stroke-linecap="square"/>
<path d="M95.0071 0.555556V39.4444" stroke="#5C4410" stroke-linecap="square"/>
<path d="M97.219 0.555556V39.4444" stroke="#5C4410" stroke-linecap="square"/>
<path d="M99.4309 0.555556V39.4444" stroke="#5C4410" stroke-linecap="square"/>
<path d="M101.643 0.555556V39.4444" stroke="#5C4410" stroke-linecap="square"/>
<path d="M103.855 0.555556V39.4444" stroke="#5C4410" stroke-linecap="square"/>
<path d="M106.067 0.555556V39.4444" stroke="#5C4410" stroke-linecap="square"/>
<path d="M108.279 0.555556V39.4444" stroke="#5C4410" stroke-linecap="square"/>
<path d="M110.49 0.555556V39.4444" stroke="#5C4410" stroke-linecap="square"/>
<path d="M112.702 0.555556V39.4444" stroke="#5C4410" stroke-linecap="square"/>
<path d="M114.914 0.555556V39.4444" stroke="#5C4410" stroke-linecap="square"/>
<path d="M117.126 0.555556V39.4444" stroke="#5C4410" stroke-linecap="square"/>
<path d="M119.338 0.555556V39.4444" stroke="#5C4410" stroke-linecap="square"/>
<path d="M121.55 0.555556V39.4444" stroke="#5C4410" stroke-linecap="square"/>
</g>
</svg>
