<svg width="18" height="18" viewBox="0 0 18 18" fill="none" xmlns="http://www.w3.org/2000/svg">
<path fill-rule="evenodd" clip-rule="evenodd" d="M11.0337 11.0445C11.9856 10.0925 12.4615 8.94953 12.4615 7.61539C12.4615 6.28124 11.9874 5.14003 11.0391 4.19171C10.0907 3.24338 8.94953 2.76923 7.61539 2.76923C6.28124 2.76923 5.14003 3.24338 4.19171 4.19171C3.24339 5.14003 2.76923 6.28124 2.76923 7.61539C2.76923 8.94953 3.24339 10.0907 4.19171 11.0391C5.14003 11.9874 6.28124 12.4615 7.61539 12.4615C8.94953 12.4615 10.0889 11.9892 11.0337 11.0445ZM18 16.6154C18 16.9904 17.863 17.3149 17.5889 17.5889C17.3149 17.863 16.9904 18 16.6154 18C16.226 18 15.9014 17.863 15.6418 17.5889L11.9315 13.8894C10.6406 14.7837 9.20193 15.2308 7.61538 15.2308C6.58413 15.2308 5.59796 15.0307 4.65685 14.6304C3.71574 14.2302 2.90445 13.6893 2.22296 13.0078C1.54146 12.3263 1.0006 11.515 0.600361 10.5739C0.200118 9.63281 0 8.64664 0 7.61538C0 6.58413 0.200118 5.59796 0.600361 4.65685C1.0006 3.71574 1.54146 2.90445 2.22296 2.22296C2.90445 1.54146 3.71574 1.0006 4.65685 0.600359C5.59796 0.200117 6.58413 0 7.61538 0C8.64664 0 9.63281 0.200117 10.5739 0.600359C11.515 1.0006 12.3263 1.54146 13.0078 2.22296C13.6893 2.90445 14.2302 3.71574 14.6304 4.65685C15.0307 5.59796 15.2308 6.58413 15.2308 7.61538C15.2308 9.20193 14.7837 10.6406 13.8894 11.9315L17.5998 15.6418C17.8666 15.9087 18 16.2332 18 16.6154Z" fill="#A6A6A6"/>
</svg>
