<svg width="181" height="18" viewBox="0 0 181 18" fill="none" xmlns="http://www.w3.org/2000/svg">
<path fill-rule="evenodd" clip-rule="evenodd" d="M3.08691 12.686C3.08691 13.4731 3.37451 14.0937 3.94971 14.5479C4.52491 15.002 5.20605 15.229 5.99316 15.229C6.95183 15.229 7.8802 15.007 8.77832 14.563C10.292 13.8263 11.0488 12.6205 11.0488 10.9453V8.75049C10.7158 8.9624 10.2869 9.139 9.76221 9.28027C9.23746 9.42155 8.72282 9.52246 8.21826 9.58301L6.56836 9.79492C5.57942 9.92611 4.83773 10.133 4.34326 10.4155C3.50569 10.8898 3.08691 11.6466 3.08691 12.686ZM9.68652 7.17627C10.3122 7.09554 10.731 6.83317 10.9429 6.38916C11.064 6.14697 11.1245 5.79883 11.1245 5.34473C11.1245 4.41634 10.794 3.74276 10.1331 3.32397C9.47208 2.90519 8.52605 2.6958 7.29492 2.6958C5.87206 2.6958 4.86296 3.07926 4.26758 3.84619C3.93457 4.27002 3.71761 4.90071 3.6167 5.73828H1.07373C1.12419 3.74022 1.77254 2.35018 3.0188 1.56812C4.26506 0.786048 5.7106 0.39502 7.35547 0.39502C9.2627 0.39502 10.8117 0.758297 12.0024 1.48486C13.1831 2.21143 13.7734 3.34163 13.7734 4.87549V14.2148C13.7734 14.4974 13.8315 14.7244 13.9475 14.896C14.0636 15.0675 14.3083 15.1533 14.6816 15.1533C14.8027 15.1533 14.939 15.1458 15.0903 15.1306C15.2417 15.1155 15.4032 15.0928 15.5747 15.0625V17.0757C15.1509 17.1968 14.828 17.2725 14.606 17.3027C14.384 17.333 14.0812 17.3481 13.6978 17.3481C12.7593 17.3481 12.0781 17.0151 11.6543 16.3491C11.4323 15.9959 11.2759 15.4964 11.1851 14.8506C10.63 15.5772 9.83285 16.2078 8.79346 16.7427C7.75406 17.2775 6.60873 17.5449 5.35742 17.5449C3.85383 17.5449 2.62525 17.0883 1.67163 16.175C0.718013 15.2618 0.241211 14.119 0.241211 12.7466C0.241211 11.243 0.710445 10.0775 1.64893 9.25C2.58741 8.42252 3.81851 7.91292 5.34229 7.72119L9.68652 7.17627ZM18.2388 0.788574H20.9331V3.08936C21.5789 2.29215 22.1642 1.71192 22.689 1.34863C23.5871 0.73307 24.6063 0.425293 25.7466 0.425293C27.0383 0.425293 28.0776 0.743161 28.8647 1.37891C29.3088 1.74219 29.7124 2.27701 30.0757 2.9834C30.6812 2.11556 31.3926 1.47225 32.21 1.05347C33.0273 0.634682 33.9456 0.425293 34.9648 0.425293C37.1445 0.425293 38.6279 1.21239 39.415 2.78662C39.8389 3.63428 40.0508 4.77457 40.0508 6.20752V17H37.2202V5.73828C37.2202 4.65852 36.9503 3.91683 36.4104 3.51318C35.8705 3.10954 35.2121 2.90771 34.4351 2.90771C33.3654 2.90771 32.4446 3.26595 31.6726 3.98242C30.9006 4.6989 30.5146 5.89469 30.5146 7.56982V17H27.7446V6.41943C27.7446 5.31949 27.6134 4.51726 27.3511 4.0127C26.9373 3.25586 26.1654 2.87744 25.0352 2.87744C24.0059 2.87744 23.0699 3.27604 22.2273 4.07324C21.3847 4.87045 20.9634 6.31347 20.9634 8.40234V17H18.2388V0.788574ZM44.062 0.788574H46.7563V3.08936C47.4022 2.29215 47.9875 1.71192 48.5122 1.34863C49.4103 0.73307 50.4295 0.425293 51.5698 0.425293C52.8615 0.425293 53.9009 0.743161 54.688 1.37891C55.132 1.74219 55.5356 2.27701 55.8989 2.9834C56.5044 2.11556 57.2158 1.47225 58.0332 1.05347C58.8506 0.634682 59.7689 0.425293 60.7881 0.425293C62.9678 0.425293 64.4512 1.21239 65.2383 2.78662C65.6621 3.63428 65.874 4.77457 65.874 6.20752V17H63.0435V5.73828C63.0435 4.65852 62.7735 3.91683 62.2336 3.51318C61.6938 3.10954 61.0353 2.90771 60.2583 2.90771C59.1886 2.90771 58.2678 3.26595 57.4958 3.98242C56.7239 4.6989 56.3379 5.89469 56.3379 7.56982V17H53.5679V6.41943C53.5679 5.31949 53.4367 4.51726 53.1743 4.0127C52.7606 3.25586 51.9886 2.87744 50.8584 2.87744C49.8291 2.87744 48.8932 3.27604 48.0505 4.07324C47.2079 4.87045 46.7866 6.31347 46.7866 8.40234V17H44.062V0.788574ZM76.3184 15.2441C78.1247 15.2441 79.3634 14.5605 80.0344 13.1931C80.7055 11.8258 81.041 10.3045 81.041 8.62939C81.041 7.11572 80.7988 5.88461 80.3145 4.93604C79.5475 3.44254 78.2256 2.6958 76.3486 2.6958C74.6836 2.6958 73.4727 3.33154 72.7158 4.60303C71.959 5.87452 71.5806 7.40836 71.5806 9.20459C71.5806 10.9302 71.959 12.3682 72.7158 13.5186C73.4727 14.669 74.6735 15.2441 76.3184 15.2441ZM76.4243 0.319336C78.5132 0.319336 80.2791 1.01562 81.7222 2.4082C83.1652 3.80079 83.8867 5.84927 83.8867 8.55371C83.8867 11.1673 83.251 13.3268 81.9795 15.0322C80.708 16.7376 78.7352 17.5903 76.061 17.5903C73.8309 17.5903 72.0599 16.836 70.748 15.3274C69.4362 13.8188 68.7803 11.793 68.7803 9.25C68.7803 6.52538 69.4715 4.3558 70.854 2.74121C72.2365 1.12662 74.0932 0.319336 76.4243 0.319336ZM89.2148 12.686C89.2148 13.4731 89.5024 14.0937 90.0776 14.5479C90.6528 15.002 91.334 15.229 92.1211 15.229C93.0798 15.229 94.0081 15.007 94.9062 14.563C96.4199 13.8263 97.1768 12.6205 97.1768 10.9453V8.75049C96.8438 8.9624 96.4149 9.139 95.8901 9.28027C95.3654 9.42155 94.8508 9.52246 94.3462 9.58301L92.6963 9.79492C91.7074 9.92611 90.9657 10.133 90.4712 10.4155C89.6336 10.8898 89.2148 11.6466 89.2148 12.686ZM95.8145 7.17627C96.4401 7.09554 96.8589 6.83317 97.0708 6.38916C97.1919 6.14697 97.2524 5.79883 97.2524 5.34473C97.2524 4.41634 96.922 3.74276 96.261 3.32397C95.6 2.90519 94.654 2.6958 93.4229 2.6958C92 2.6958 90.9909 3.07926 90.3955 3.84619C90.0625 4.27002 89.8455 4.90071 89.7446 5.73828H87.2017C87.2521 3.74022 87.9005 2.35018 89.1467 1.56812C90.393 0.786048 91.8385 0.39502 93.4834 0.39502C95.3906 0.39502 96.9396 0.758297 98.1304 1.48486C99.311 2.21143 99.9014 3.34163 99.9014 4.87549V14.2148C99.9014 14.4974 99.9594 14.7244 100.075 14.896C100.191 15.0675 100.436 15.1533 100.81 15.1533C100.931 15.1533 101.067 15.1458 101.218 15.1306C101.37 15.1155 101.531 15.0928 101.703 15.0625V17.0757C101.279 17.1968 100.956 17.2725 100.734 17.3027C100.512 17.333 100.209 17.3481 99.8257 17.3481C98.8872 17.3481 98.2061 17.0151 97.7822 16.3491C97.5602 15.9959 97.4038 15.4964 97.313 14.8506C96.758 15.5772 95.9608 16.2078 94.9214 16.7427C93.882 17.2775 92.7367 17.5449 91.4854 17.5449C89.9818 17.5449 88.7532 17.0883 87.7996 16.175C86.8459 15.2618 86.3691 14.119 86.3691 12.7466C86.3691 11.243 86.8384 10.0775 87.7769 9.25C88.7153 8.42252 89.9464 7.91292 91.4702 7.72119L95.8145 7.17627ZM110.618 0.319336C112.445 0.319336 113.931 0.763342 115.076 1.65137C116.221 2.53939 116.91 4.06819 117.142 6.23779H114.493C114.332 5.23876 113.963 4.40878 113.388 3.7478C112.813 3.08683 111.89 2.75635 110.618 2.75635C108.882 2.75635 107.641 3.604 106.895 5.29932C106.41 6.39926 106.168 7.7565 106.168 9.37109C106.168 10.9958 106.511 12.3631 107.197 13.4731C107.883 14.5832 108.963 15.1382 110.437 15.1382C111.567 15.1382 112.462 14.7926 113.123 14.1013C113.784 13.4101 114.241 12.464 114.493 11.2632H117.142C116.839 13.4126 116.083 14.9843 114.872 15.9783C113.661 16.9723 112.112 17.4692 110.225 17.4692C108.105 17.4692 106.415 16.6947 105.154 15.1458C103.892 13.5968 103.262 11.6618 103.262 9.34082C103.262 6.4951 103.953 4.28012 105.335 2.6958C106.718 1.11148 108.479 0.319336 110.618 0.319336ZM126.118 0.319336C127.945 0.319336 129.431 0.763342 130.576 1.65137C131.721 2.53939 132.41 4.06819 132.642 6.23779H129.993C129.832 5.23876 129.463 4.40878 128.888 3.7478C128.313 3.08683 127.39 2.75635 126.118 2.75635C124.382 2.75635 123.141 3.604 122.395 5.29932C121.91 6.39926 121.668 7.7565 121.668 9.37109C121.668 10.9958 122.011 12.3631 122.697 13.4731C123.383 14.5832 124.463 15.1382 125.937 15.1382C127.067 15.1382 127.962 14.7926 128.623 14.1013C129.284 13.4101 129.741 12.464 129.993 11.2632H132.642C132.339 13.4126 131.583 14.9843 130.372 15.9783C129.161 16.9723 127.612 17.4692 125.725 17.4692C123.605 17.4692 121.915 16.6947 120.654 15.1458C119.392 13.5968 118.762 11.6618 118.762 9.34082C118.762 6.4951 119.453 4.28012 120.835 2.6958C122.218 1.11148 123.979 0.319336 126.118 0.319336ZM142.118 0.425293C143.268 0.425293 144.383 0.695228 145.463 1.23511C146.543 1.77499 147.365 2.47379 147.93 3.33154C148.475 4.14893 148.838 5.10253 149.02 6.19238C149.181 6.93913 149.262 8.12987 149.262 9.76465H137.38C137.43 11.4095 137.819 12.7289 138.545 13.7229C139.272 14.7169 140.397 15.2139 141.921 15.2139C143.344 15.2139 144.479 14.7446 145.327 13.8062C145.811 13.2612 146.154 12.6305 146.356 11.9141H149.035C148.965 12.5094 148.73 13.1729 148.331 13.9045C147.933 14.6362 147.486 15.234 146.992 15.6982C146.164 16.5055 145.14 17.0505 143.919 17.333C143.263 17.4945 142.521 17.5752 141.694 17.5752C139.676 17.5752 137.965 16.8411 136.562 15.3728C135.16 13.9045 134.458 11.8485 134.458 9.20459C134.458 6.60106 135.165 4.48699 136.578 2.8623C137.99 1.23762 139.837 0.425293 142.118 0.425293ZM146.462 7.6001C146.351 6.41943 146.094 5.47591 145.69 4.76953C144.943 3.45768 143.697 2.80176 141.951 2.80176C140.7 2.80176 139.65 3.25333 138.803 4.15649C137.955 5.05966 137.506 6.20751 137.456 7.6001H146.462ZM154.227 11.9141C154.308 12.8223 154.535 13.5186 154.908 14.0029C155.594 14.8809 156.785 15.3198 158.48 15.3198C159.49 15.3198 160.378 15.1003 161.145 14.6614C161.911 14.2224 162.295 13.5438 162.295 12.6255C162.295 11.9292 161.987 11.3994 161.372 11.0361C160.978 10.8141 160.201 10.5568 159.041 10.2642L156.876 9.71924C155.493 9.37614 154.474 8.99268 153.818 8.56885C152.648 7.83219 152.062 6.81299 152.062 5.51123C152.062 3.97737 152.615 2.73617 153.72 1.7876C154.825 0.839025 156.311 0.364746 158.178 0.364746C160.62 0.364746 162.381 1.08121 163.46 2.51416C164.137 3.42237 164.465 4.4012 164.444 5.45068H161.871C161.821 4.83512 161.604 4.27507 161.22 3.77051C160.595 3.05403 159.51 2.6958 157.966 2.6958C156.937 2.6958 156.157 2.89258 155.627 3.28613C155.097 3.67969 154.833 4.19938 154.833 4.84521C154.833 5.5516 155.181 6.1167 155.877 6.54053C156.281 6.79281 156.876 7.01481 157.663 7.20654L159.464 7.64551C161.422 8.11979 162.734 8.57894 163.4 9.02295C164.459 9.71924 164.989 10.8141 164.989 12.3076C164.989 13.7507 164.442 14.9969 163.347 16.0464C162.252 17.0959 160.584 17.6206 158.344 17.6206C155.932 17.6206 154.225 17.0732 153.22 15.9783C152.216 14.8834 151.679 13.5287 151.608 11.9141H154.227ZM169.727 11.9141C169.808 12.8223 170.035 13.5186 170.408 14.0029C171.094 14.8809 172.285 15.3198 173.98 15.3198C174.99 15.3198 175.878 15.1003 176.645 14.6614C177.411 14.2224 177.795 13.5438 177.795 12.6255C177.795 11.9292 177.487 11.3994 176.872 11.0361C176.478 10.8141 175.701 10.5568 174.541 10.2642L172.376 9.71924C170.993 9.37614 169.974 8.99268 169.318 8.56885C168.148 7.83219 167.562 6.81299 167.562 5.51123C167.562 3.97737 168.115 2.73617 169.22 1.7876C170.325 0.839025 171.811 0.364746 173.678 0.364746C176.12 0.364746 177.881 1.08121 178.96 2.51416C179.637 3.42237 179.965 4.4012 179.944 5.45068H177.371C177.321 4.83512 177.104 4.27507 176.72 3.77051C176.095 3.05403 175.01 2.6958 173.466 2.6958C172.437 2.6958 171.657 2.89258 171.127 3.28613C170.597 3.67969 170.333 4.19938 170.333 4.84521C170.333 5.5516 170.681 6.1167 171.377 6.54053C171.781 6.79281 172.376 7.01481 173.163 7.20654L174.964 7.64551C176.922 8.11979 178.234 8.57894 178.9 9.02295C179.959 9.71924 180.489 10.8141 180.489 12.3076C180.489 13.7507 179.942 14.9969 178.847 16.0464C177.752 17.0959 176.084 17.6206 173.844 17.6206C171.432 17.6206 169.725 17.0732 168.72 15.9783C167.716 14.8834 167.179 13.5287 167.108 11.9141H169.727Z" fill="white"/>
</svg>
